<?xml version="1.0" encoding="UTF-8"?>
<svg id="Calque_2" data-name="Calque 2" xmlns="http://www.w3.org/2000/svg" viewBox="0 0 390.7 390.7">
  <defs>
    <style>
      .cls-1 {
        fill: #184c60;
      }

      .cls-1, .cls-2 {
        stroke-width: 0px;
      }

      .cls-2 {
        fill: #005985;
      }
    </style>
  </defs>
  <g id="Calque_1-2" data-name="Calque 1">
    <g>
      <g>
        <path class="cls-2" d="m346.24,16.57c-1.69-.34-3.61-.44-5.63-.02-3.69.78-9.37,3.67-15.02,17.33-7.07,17.08-4.94,28.93-6.93,52-.63,7.3-1.87,18.08-4.62,31.2-1.54,8.47-3.08,16.95-4.62,25.42,1.19.29,20.6,5.19,23.11,18.49.98,5.16-.98,9.58-3.47,15.02-2.59,5.66-8.06,15.27-19.64,24.27-25.81,19.64-51.61,39.29-77.42,58.93.92-2.22,2.05-4.55,3.47-6.93,5.91-9.96,13.87-16.09,19.64-19.64,13.29-10.21,26.58-20.41,39.87-30.62,20.16-14.48,31.26-30.83,27.15-41.02-.68-1.69-1.89-3.49-4.04-5.2-2.14-.76-5.57-1.72-9.82-1.73-4.39-.02-7.98.98-11.56,2.31-12.4,4.62-27.07,14.22-30.04,16.18-15.47,9.28-30.93,18.56-46.4,27.84-7.07,4.24-14.77,7.31-22.79,9.22-8.83,2.1-18.63,5.04-29.03,9.17-12.76,5.07-23.56,10.79-32.35,16.18-6.89,5.6-16.53,14.93-24.27,28.89-13.32,24.03-12.34,50.06-11.56,60.09l92.44-1.16,3.27-7.64c2.38-5.54,6.48-10.17,11.71-13.19,39.3-22.72,78.6-45.43,117.91-68.15,2.98-1.85,7.26-5.09,10.4-10.4,2.9-4.9,3.56-9.42,4.62-18.49,1.45-12.39,2.17-18.58,2.31-21.95.35-8.53,1.39-20.98,4.37-38.43.95-5.57,1.44-11.22,1.49-16.87.35-35.55.69-71.1,1.04-106.65.02-2.14-1.48-4-3.58-4.42Z"/>
        <path class="cls-1" d="m298.89,132.13l10.46-.2,4.02-24.74c1.67-8.81,2.82-17.7,3.4-26.4.3-4.45.43-8.46.51-12.09-5.5-7.81-14.49-21.16-14.49-21.16,0,0-7.04-1.87-5.75,13.11l1.85,71.48Z"/>
        <path class="cls-1" d="m317.3,65.94c.01-.38.03-.76.03-1.14.25-11.33.44-20.27,4.95-31.8,1.81-4.63,3.83-8.38,6.08-11.31l-13.51,2.12s-19.37,6.87.23,38.5c.84,1.35,1.58,2.56,2.23,3.63Z"/>
        <path class="cls-2" d="m390.49,186.33c-1.78-38.63-14.73-74.16-35.6-103.59l-.18,19.38c14.67,24.99,23.66,53.8,25.09,84.71,4.7,101.71-74.22,188.27-175.93,192.97-101.71,4.7-188.27-74.22-192.97-175.93C6.2,102.16,85.12,15.6,186.83,10.9c40.09-1.85,77.83,9.29,109.13,29.69.61-.35,1.24-.64,1.89-.87-.18-3.51.21-6.79,1.2-9.84C266.48,9.4,227.59-1.7,186.33.21,78.74,5.18-4.76,96.77.21,204.37c4.97,107.59,96.56,191.09,204.16,186.12,107.59-4.97,191.09-96.56,186.12-204.16Z"/>
        <path class="cls-1" d="m267.93,56.11l-4.9-9.18c-2.42,1.29-56.83,30.45-88.35,58.41-3.62-5.13-9.59-8.5-16.33-8.5-11.03,0-20,8.97-20,20,0,1.99.3,3.9.84,5.72-25.83,24.07-73.2,50.85-86.02,57.91-3.66-4.06-8.94-6.62-14.83-6.62-11.03,0-20,8.97-20,20s8.97,20,20,20,20-8.97,20-20c0-1.41-.15-2.78-.43-4.1,12.6-6.9,59.44-33.24,86.89-58.22,3.57,3.29,8.31,5.32,13.53,5.32,11.03,0,20-8.97,20-20,0-.25-.03-.49-.04-.73,29.8-27.94,89.02-59.68,89.62-60ZM38.35,205.85c-6.62,0-12-5.38-12-12s5.38-12,12-12,12,5.38,12,12-5.38,12-12,12Zm120-77c-6.62,0-12-5.38-12-12s5.38-12,12-12,12,5.38,12,12-5.38,12-12,12Z"/>
        <path class="cls-2" d="m115.68,192.24l1.22,42.3c-1.34.84-2.65,1.67-3.92,2.5-3.12,2.69-6.73,6.09-10.49,10.23l-.84.02-1.58-54.6,15.6-.45Z"/>
        <path class="cls-2" d="m141.97,171.53l1.4,48.57c-5.49,2.57-10.61,5.22-15.39,7.88l-1.62-56,15.6-.45Z"/>
        <path class="cls-2" d="m169.06,148.2l1.76,60.97c-4.97,1.64-10.14,3.53-15.45,5.69l-1.91-66.21,15.6-.45Z"/>
        <path class="cls-2" d="m197.16,130.04l2.01,69.8c-4.75,2.14-9.67,3.89-14.72,5.25-.25.07-.49.14-.74.2l-2.16-74.8,15.6-.45Z"/>
        <path class="cls-2" d="m225.31,113.61l2,69.4c-5.11,3.27-10.22,6.54-15.33,9.81l-2.27-78.76,15.6-.45Z"/>
        <path class="cls-2" d="m253.31,91.99l2.11,73.04c-5.11,3.27-10.22,6.54-15.33,9.81l-2.38-82.4,15.6-.45Z"/>
        <path class="cls-2" d="m281.44,74.69l2.09,72.34c-6.21,3.58-11.77,7.23-15.34,9.65l-2.35-81.54,15.6-.45Z"/>
      </g>
      <path class="cls-2" d="m207.35,335.61v33.52c-1.17.08-2.36.15-3.54.2-2.78.13-5.59.19-8.37.19-41.63,0-79.98-14.17-110.41-38.04,1.12-.89,2.53-1.43,4.07-1.45l111.57-1.04c3.67-.03,6.68,2.95,6.68,6.62Z"/>
    </g>
  </g>
</svg>