<?xml version="1.0" encoding="UTF-8"?>
<svg id="Calque_2" data-name="Calque 2" xmlns="http://www.w3.org/2000/svg" viewBox="0 0 699.84 210.99">
  <defs>
    <style>
      .cls-1 {
        fill: #005985;
      }

      .cls-1, .cls-2 {
        stroke-width: 0px;
      }

      .cls-2 {
        fill: #002a3b;
      }
    </style>
  </defs>
  <g id="Calque_1-2" data-name="Calque 1">
    <g>
      <g>
        <path class="cls-2" d="m137.06,197.58l-1.9,5.14-4.6-.02,10.2-27.45,5.03.02,9.94,27.54-4.6-.02-1.85-5.16-12.22-.06Zm10.66-4.25l-4.46-12.4-4.6,12.36,9.06.04Z"/>
        <path class="cls-2" d="m191.61,200.2c-.01,2.84-1.03,5.27-3.06,7.27-2.23,2-4.67,3-7.31,2.99-2.64-.01-5.06-1.03-7.28-3.05l3.11-3.07c1.27,1.16,2.67,1.75,4.19,1.76,1.52,0,2.92-.57,4.2-1.72.82-.81,1.36-1.79,1.63-2.93-1.77,1.24-3.77,1.86-5.99,1.85-2.88-.01-5.34-1.05-7.38-3.1-2.04-2.06-3.05-4.53-3.03-7.43.01-2.88,1.05-5.34,3.1-7.38,2.06-2.04,4.52-3.05,7.41-3.04,2.32.01,4.37.69,6.17,2.04v-1.07s4.31.02,4.31.02l-.07,15.06v1.72s0,.08,0,.08Zm-6.25-11.94c-1.16-1.08-2.55-1.62-4.17-1.63-1.71,0-3.17.59-4.38,1.8-1.21,1.21-1.82,2.66-1.83,4.35,0,1.71.59,3.17,1.79,4.39,1.2,1.22,2.65,1.83,4.36,1.84,1.62,0,3.01-.52,4.18-1.59,1.17-1.07,1.84-2.41,2.02-4.03v-1.09c-.16-1.62-.82-2.97-1.98-4.05Z"/>
        <path class="cls-2" d="m213.23,176.38c.52.53.78,1.17.78,1.92,0,.74-.27,1.37-.8,1.89s-1.16.78-1.9.78c-.75,0-1.39-.27-1.91-.8s-.78-1.16-.78-1.9c0-.75.27-1.39.8-1.91.53-.52,1.17-.78,1.92-.78.74,0,1.37.27,1.89.8Zm.13,26.71l-4.32-.02.09-19.64,4.32.02-.09,19.64Z"/>
        <path class="cls-2" d="m240.66,182.65l-.02,4.36c-1.37.13-2.59.7-3.66,1.72-1.18,1.15-1.77,2.55-1.78,4.18v1.8h-.07l-.04,8.49-4.3-.02.04-8.49v-1.8s.05-9.36.05-9.36l4.3.02v.99c1.69-1.18,3.51-1.81,5.47-1.89Z"/>
        <path class="cls-2" d="m285.55,201.77l-.04,9.22-4.3-.02.13-27.5,4.3.02v1.36c1.8-1.33,3.86-2,6.16-1.98,2.89.01,5.36,1.05,7.4,3.11,2.04,2.06,3.05,4.52,3.03,7.41-.01,2.9-1.05,5.36-3.1,7.4s-4.53,3.05-7.43,3.03c-2.3-.01-4.35-.69-6.15-2.04Zm10.56-4.04c1.22-1.2,1.83-2.66,1.84-4.37,0-1.7-.59-3.15-1.8-4.37s-2.66-1.83-4.37-1.84c-1.62,0-3.01.52-4.17,1.59-1.16,1.07-1.83,2.41-2.01,4.03v1.09c.16,1.62.82,2.97,1.97,4.05,1.15,1.08,2.54,1.62,4.16,1.63,1.71,0,3.17-.59,4.39-1.8Z"/>
        <path class="cls-2" d="m340.15,184.05l-.09,19.64-4.32-.02v-1.66c-1.8,1.33-3.86,2-6.16,1.98-2.9-.01-5.36-1.05-7.4-3.1-2.04-2.06-3.05-4.53-3.03-7.43.01-2.88,1.05-5.34,3.11-7.38,2.06-2.04,4.53-3.05,7.43-3.04,2.3.01,4.35.69,6.15,2.04v-1.07s4.33.02,4.33.02Zm-4.37,8.96c-.16-1.62-.82-2.97-1.97-4.05-1.15-1.08-2.54-1.62-4.16-1.63-1.71,0-3.17.59-4.39,1.8-1.22,1.2-1.83,2.66-1.84,4.35,0,1.71.59,3.17,1.8,4.39,1.2,1.22,2.66,1.83,4.37,1.84,1.62,0,3.01-.52,4.17-1.59,1.16-1.07,1.83-2.41,2.01-4.03v-1.09Z"/>
        <path class="cls-2" d="m366.83,183.25l-.02,4.36c-1.37.12-2.59.7-3.66,1.72-1.18,1.15-1.77,2.55-1.78,4.18v1.8h-.07l-.04,8.49-4.3-.02.04-8.49v-1.8s.05-9.36.05-9.36l4.3.02v.99c1.69-1.18,3.51-1.81,5.47-1.89Z"/>
        <path class="cls-2" d="m411.84,176.53l-.13,27.5-4.3-.02.13-27.5,4.3.02Z"/>
        <path class="cls-2" d="m449.67,184.57l-.09,19.64-4.32-.02v-1.66c-1.8,1.33-3.86,2-6.16,1.98-2.9-.01-5.36-1.05-7.4-3.1s-3.05-4.53-3.03-7.43c.01-2.88,1.05-5.34,3.11-7.38,2.06-2.04,4.53-3.05,7.43-3.03,2.3.01,4.35.69,6.15,2.04v-1.07s4.33.02,4.33.02Zm-4.37,8.96c-.16-1.62-.82-2.97-1.97-4.05-1.15-1.08-2.54-1.62-4.16-1.63-1.71,0-3.17.59-4.39,1.8-1.22,1.2-1.83,2.66-1.84,4.35,0,1.71.59,3.17,1.8,4.39,1.21,1.22,2.66,1.83,4.37,1.84,1.62,0,3.01-.52,4.17-1.59,1.16-1.07,1.83-2.41,2.01-4.03v-1.09Z"/>
        <path class="cls-2" d="m511.35,177l-.13,27.5-4.32-.02v-1.66c-1.8,1.33-3.86,2-6.16,1.98-2.9-.01-5.36-1.05-7.4-3.1s-3.05-4.53-3.03-7.43c.01-2.88,1.05-5.34,3.11-7.38,2.06-2.04,4.53-3.05,7.43-3.03,2.3.01,4.35.69,6.15,2.04l.04-8.92,4.32.02Zm-4.4,16.82c-.16-1.62-.82-2.97-1.97-4.05-1.15-1.08-2.54-1.62-4.16-1.63-1.71,0-3.17.59-4.39,1.8-1.22,1.21-1.83,2.66-1.84,4.35,0,1.71.59,3.17,1.8,4.39,1.21,1.22,2.66,1.83,4.37,1.84,1.62,0,3.01-.52,4.17-1.59,1.16-1.07,1.83-2.41,2.01-4.03v-1.09Z"/>
        <path class="cls-2" d="m531.2,201.88c-2.04-2.06-3.05-4.53-3.03-7.43.01-2.88,1.05-5.34,3.11-7.38,2.06-2.04,4.53-3.05,7.43-3.03,2.89.01,5.36,1.05,7.39,3.11,2.03,2.06,3.04,4.52,3.02,7.41-.01,2.9-1.05,5.36-3.09,7.4-2.05,2.04-4.52,3.05-7.42,3.03-2.9-.01-5.36-1.05-7.4-3.1Zm11.81-2.97c1.22-1.2,1.83-2.66,1.84-4.37,0-1.7-.59-3.15-1.8-4.37s-2.66-1.83-4.37-1.84-3.17.59-4.39,1.8c-1.22,1.2-1.83,2.66-1.84,4.35,0,1.71.59,3.17,1.8,4.39s2.66,1.83,4.37,1.84,3.17-.59,4.39-1.8Z"/>
        <path class="cls-2" d="m586.48,195.62l-.04,9.24-4.36-.02.04-9.24c0-1.66-.57-3.08-1.74-4.27-1.28-1.19-2.68-1.79-4.2-1.8-1.51,0-2.92.58-4.21,1.76-.85.85-1.4,1.89-1.65,3.11l-.05,10.38-4.3-.02.09-19.64,4.3.02v1.78c2.08-1.4,4.32-1.99,6.73-1.78,2.41.21,4.53,1.23,6.38,3.07,2.02,2.06,3.02,4.54,3,7.42Z"/>
        <path class="cls-2" d="m623.86,195.8l-.04,9.24-4.36-.02.04-9.24c0-1.66-.57-3.08-1.74-4.27-1.28-1.19-2.68-1.79-4.2-1.8-1.51,0-2.92.58-4.21,1.76-.85.85-1.4,1.89-1.65,3.11l-.05,10.38-4.3-.02.09-19.64,4.3.02v1.78c2.08-1.4,4.32-1.99,6.73-1.78,2.41.21,4.53,1.23,6.38,3.07,2.02,2.06,3.02,4.53,3,7.42Z"/>
        <path class="cls-2" d="m645.41,197.18c1.2,2.69,3.13,4.04,5.8,4.05,1.88,0,3.45-.71,4.71-2.15l4.97.02c-2.11,4.29-5.35,6.43-9.7,6.41-2.9-.01-5.36-1.05-7.4-3.1-2.04-2.06-3.05-4.53-3.03-7.43.01-2.88,1.05-5.34,3.11-7.38,2.06-2.04,4.53-3.05,7.43-3.03,2.89.01,5.36,1.05,7.39,3.11,2.03,2.06,3.04,4.52,3.02,7.41,0,.75-.08,1.47-.23,2.17h-2.23s-2.21-.02-2.21-.02l-11.63-.05Zm11.65-4.27c-1.2-2.69-3.13-4.04-5.78-4.05-2.67-.01-4.62,1.32-5.84,4l11.63.05Zm-.67-16.47l-4.41,5.51-1.93-1.11,3.27-6.18,3.07,1.79Z"/>
        <path class="cls-2" d="m683.26,197.36c1.2,2.69,3.13,4.04,5.8,4.05,1.88,0,3.45-.71,4.71-2.15l4.97.02c-2.11,4.29-5.35,6.43-9.7,6.41-2.9-.01-5.36-1.05-7.4-3.1-2.04-2.06-3.05-4.53-3.03-7.43.01-2.88,1.05-5.34,3.11-7.38,2.06-2.04,4.53-3.05,7.43-3.03,2.89.01,5.36,1.05,7.39,3.11,2.03,2.06,3.04,4.52,3.02,7.41,0,.75-.08,1.47-.23,2.17h-2.23s-2.21-.02-2.21-.02l-11.63-.05Zm11.65-4.27c-1.2-2.69-3.13-4.04-5.78-4.05-2.67-.01-4.62,1.32-5.84,4l11.63.05Z"/>
      </g>
      <g>
        <g>
          <path class="cls-2" d="m296.35,58.78c-6.99-8.47-18.48-23-18.48-23,0,0-8.23-1.52-5.45,15.54l8.4,81.82,11.98-1.14,2.44-28.73c1.15-10.26,1.68-20.54,1.58-30.58-.05-5.13-.25-9.74-.47-13.91Z"/>
          <path class="cls-2" d="m289.72,8.65s-21.62,9.58,3.64,44.14c1.08,1.48,2.04,2.8,2.87,3.97-.02-.44-.04-.87-.07-1.31-.71-13.01-1.28-23.29,2.89-36.91,1.67-5.46,3.66-9.95,5.98-13.5l-15.31,3.61Z"/>
        </g>
        <g>
          <path class="cls-1" d="m238.66,6.79l-44.24,94.75L150.09,6.79h-19.25v119.55c11.12-12.61,18.27-28.79,19.52-46.6v-26.29l36.45,78.09h15.13l36.54-78.09v78.09h19.52V6.79h-19.34Z"/>
          <path class="cls-1" d="m311.1,6.79v124.75h19.53V6.79h-19.53Z"/>
          <path class="cls-1" d="m420.44,42.44v4.83c-8.18-6.09-17.52-9.13-28.03-9.13-13.07,0-24.25,4.64-33.53,13.92-9.29,9.29-13.93,20.46-13.93,33.54s4.64,24.34,13.93,33.62c9.28,9.29,20.46,13.93,33.53,13.93,10.09,0,19.14-2.83,27.14-8.51-1.2,5.2-3.64,9.64-7.34,13.35-5.8,5.25-12.14,7.88-19.03,7.88s-13.24-2.63-19.03-7.88l-14.06,13.96c10.09,9.14,21.12,13.71,33.09,13.71s22.99-4.57,33.08-13.71c9.14-9.13,13.71-20.14,13.71-33.04V42.44h-19.53Zm0,45.67c-.77,7.34-3.8,13.44-9.09,18.31-5.28,4.87-11.59,7.3-18.94,7.3-7.76,0-14.37-2.75-19.83-8.24s-8.19-12.12-8.19-19.88,2.73-14.3,8.19-19.79,12.07-8.24,19.83-8.24c7.35,0,13.66,2.43,18.94,7.3,5.29,4.86,8.32,10.97,9.09,18.31v4.93Z"/>
          <path class="cls-1" d="m548.32,95.45c.66-3.16.99-6.45.99-9.85,0-13.08-4.63-24.25-13.88-33.54-9.26-9.28-20.45-13.92-33.59-13.92s-24.34,4.64-33.62,13.92c-9.28,9.29-13.93,20.46-13.93,33.54s4.65,24.34,13.93,33.62c9.28,9.29,20.49,13.93,33.62,13.93,19.76,0,34.39-9.76,43.88-29.28h-22.56c-5.67,6.57-12.78,9.85-21.32,9.85-12.12,0-20.92-6.09-26.41-18.27h72.89Zm-46.48-37.88c12.06,0,20.84,6.09,26.33,18.27h-52.74c5.49-12.18,14.29-18.27,26.41-18.27Z"/>
          <path class="cls-1" d="m634.83,94.02c-2.57-5.32-7.14-9.64-13.71-12.99-4.41-1.97-9.04-3.43-13.88-4.39-5.43-1.01-10.62-2.74-15.58-5.19-2.15-1.07-3.88-2.57-5.19-4.48-1.32-1.91-.93-3.82,1.16-5.73,3.35-2.39,7.6-3.3,12.76-2.73,5.17.57,9.3,2.14,12.41,4.7,2.15,2.03,3.58,4.63,4.29,7.79l19.97-.09c-1.01-9.13-4.68-16.59-11.01-22.38-6.87-5.79-15.22-9.05-25.07-9.77-9.85-.71-18.42,1.65-25.7,7.08-7.77,6.86-10.74,14.48-8.92,22.83,1.83,8.36,7.09,15.08,15.81,20.15,5.97,2.93,11.76,4.9,17.37,5.91,4.6.96,8.93,2.33,12.99,4.12,2.51,1.26,4.16,2.85,4.97,4.79.8,1.94.1,3.9-2.11,5.87-2.8,2.21-6.48,3.55-11.01,4.03-4.72.42-9.11-.3-13.17-2.15-4.35-2.09-6.92-5.52-7.7-10.3h-19.88c1.2,12.84,7.53,22.21,18.99,28.12,7.1,3.34,14.85,4.67,23.24,3.98,8.38-.68,15.71-3.47,21.98-8.37,9.79-8.54,12.12-18.8,6.99-30.8Z"/>
          <path class="cls-1" d="m699.84,62.05v-19.61h-23.46v-21.23h-19.53v65.11c0,12.89,4.57,23.94,13.71,33.13,8.53,8.18,18.29,12.68,29.28,13.52v-19.88c-5.73-.77-10.84-3.34-15.31-7.7-5.26-5.25-7.88-11.61-7.88-19.07v-24.27h23.19Z"/>
        </g>
      </g>
      <g>
        <g>
          <path class="cls-1" d="m133.24,6.38c-.65-.13-1.39-.17-2.17,0-1.42.3-3.61,1.41-5.78,6.67-2.72,6.57-1.9,11.13-2.67,20.01-.24,2.81-.72,6.96-1.78,12.01-.59,3.26-1.19,6.52-1.78,9.78.46.11,7.93,2,8.89,7.11.38,1.99-.38,3.69-1.33,5.78-1,2.18-3.1,5.88-7.56,9.34-9.93,7.56-19.86,15.12-29.79,22.68.35-.85.79-1.75,1.33-2.67,2.27-3.83,5.34-6.19,7.56-7.56,5.11-3.93,10.23-7.86,15.34-11.78,7.76-5.57,12.03-11.86,10.45-15.79-.26-.65-.73-1.34-1.56-2-.83-.29-2.14-.66-3.78-.67-1.69,0-3.07.38-4.45.89-4.77,1.78-10.42,5.47-11.56,6.23-5.95,3.57-11.9,7.14-17.85,10.71-2.72,1.63-5.68,2.81-8.77,3.55-3.4.81-7.17,1.94-11.17,3.53-4.91,1.95-9.07,4.15-12.45,6.23-2.65,2.16-6.36,5.75-9.34,11.12-5.13,9.25-4.75,19.26-4.45,23.12l35.57-.44,1.26-2.94c.91-2.13,2.49-3.91,4.5-5.08,15.12-8.74,30.25-17.48,45.37-26.22,1.15-.71,2.79-1.96,4-4,1.12-1.89,1.37-3.63,1.78-7.11.56-4.77.84-7.15.89-8.45.14-3.28.53-8.07,1.68-14.79.37-2.15.55-4.32.57-6.49.13-13.68.27-27.36.4-41.04,0-.82-.57-1.54-1.38-1.7Z"/>
          <path class="cls-2" d="m115.02,50.85l4.02-.08,1.55-9.52c.64-3.39,1.08-6.81,1.31-10.16.11-1.71.17-3.26.2-4.65-2.12-3-5.58-8.14-5.58-8.14,0,0-2.71-.72-2.21,5.05l.71,27.51Z"/>
          <path class="cls-2" d="m122.11,25.38c0-.15,0-.29.01-.44.09-4.36.17-7.8,1.9-12.24.7-1.78,1.47-3.23,2.34-4.35l-5.2.81s-7.46,2.64.09,14.82c.32.52.61.99.86,1.4Z"/>
          <path class="cls-1" d="m150.27,71.7c-.68-14.87-5.67-28.54-13.7-39.86l-.07,7.46c5.65,9.62,9.1,20.7,9.66,32.6,1.81,39.14-28.56,72.45-67.7,74.26-39.14,1.81-72.45-28.56-74.26-67.7C2.39,39.31,32.76,6,71.9,4.2c15.43-.71,29.95,3.57,42,11.43.23-.13.48-.25.73-.33-.07-1.35.08-2.61.46-3.79C102.55,3.62,87.58-.65,71.7.08,30.3,1.99-1.83,37.24.08,78.65c1.91,41.4,37.16,73.54,78.57,71.62,41.4-1.91,73.54-37.16,71.62-78.57Z"/>
          <path class="cls-2" d="m103.11,21.59l-1.88-3.53c-.93.5-21.87,11.72-34,22.48-1.39-1.97-3.69-3.27-6.29-3.27-4.24,0-7.7,3.45-7.7,7.7,0,.76.12,1.5.32,2.2-9.94,9.26-28.17,19.57-33.1,22.28-1.41-1.56-3.44-2.55-5.71-2.55-4.24,0-7.7,3.45-7.7,7.7s3.45,7.7,7.7,7.7,7.7-3.45,7.7-7.7c0-.54-.06-1.07-.16-1.58,4.85-2.65,22.87-12.79,33.44-22.4,1.37,1.27,3.2,2.05,5.21,2.05,4.24,0,7.7-3.45,7.7-7.7,0-.1-.01-.19-.01-.28,11.47-10.75,34.26-22.97,34.49-23.09ZM14.76,79.22c-2.55,0-4.62-2.07-4.62-4.62s2.07-4.62,4.62-4.62,4.62,2.07,4.62,4.62-2.07,4.62-4.62,4.62Zm46.18-29.63c-2.55,0-4.62-2.07-4.62-4.62s2.07-4.62,4.62-4.62,4.62,2.07,4.62,4.62-2.07,4.62-4.62,4.62Z"/>
          <path class="cls-1" d="m44.52,73.98l.47,16.28c-.51.32-1.02.64-1.51.96-1.2,1.04-2.59,2.34-4.04,3.94h-.32s-.61-21-.61-21l6-.17Z"/>
          <path class="cls-1" d="m54.64,66.01l.54,18.69c-2.11.99-4.08,2.01-5.92,3.03l-.62-21.55,6-.17Z"/>
          <path class="cls-1" d="m65.06,57.03l.68,23.46c-1.91.63-3.9,1.36-5.95,2.19l-.74-25.48,6-.17Z"/>
          <path class="cls-1" d="m75.87,50.04l.78,26.86c-1.83.82-3.72,1.5-5.66,2.02-.1.03-.19.05-.28.08l-.83-28.78,6-.17Z"/>
          <path class="cls-1" d="m86.7,43.72l.77,26.71c-1.97,1.26-3.93,2.52-5.9,3.78l-.87-30.31,6-.17Z"/>
          <path class="cls-1" d="m97.48,35.4l.81,28.11c-1.97,1.26-3.93,2.52-5.9,3.78l-.92-31.71,6-.17Z"/>
          <path class="cls-1" d="m108.3,28.74l.8,27.84c-2.39,1.38-4.53,2.78-5.9,3.71l-.91-31.38,6-.17Z"/>
        </g>
        <path class="cls-1" d="m79.79,129.15v12.9c-.45.03-.91.06-1.36.08-1.07.05-2.15.07-3.22.07-16.02,0-30.78-5.45-42.49-14.64.43-.34.97-.55,1.57-.56l42.93-.4c1.41-.01,2.57,1.14,2.57,2.55Z"/>
      </g>
    </g>
  </g>
</svg>